<svg xmlns="http://www.w3.org/2000/svg" viewBox="0 0 24 24" width="32" height="32"><path d="M12 2.163c3.204 0 3.584.012 4.85.07 1.366.062 2.633.334 3.608 1.308.974.974 1.246 2.241 1.308 3.608.058 1.266.069 1.646.069 4.85s-.012 3.584-.07 4.85c-.062 1.366-.334 2.633-1.308 3.608-.974.974-2.241 1.246-3.608 1.308-1.266.058-1.646.069-4.85.069s-3.584-.012-4.85-.07c-1.366-.062-2.633-.334-3.608-1.308-.974-.974-1.246-2.241-1.308-3.608C2.175 15.647 2.163 15.267 2.163 12s.012-3.584.07-4.85c.062-1.366.334-2.633 1.308-3.608C4.515 2.497 5.782 2.225 7.148 2.163 8.414 2.105 8.794 2.163 12 2.163zm0-2.163C8.741 0 8.332.012 7.052.07 5.771.128 4.635.4 3.661 1.374c-.974.974-1.246 2.241-1.308 3.608C2.175 8.414 2.163 8.794 2.163 12c0 3.206.012 3.586.07 4.85.062 1.366.334 2.633 1.308 3.608.974.974 2.241 1.246 3.608 1.308 1.266.058 1.646.069 4.85.069s3.584-.012 4.85-.07c1.366-.062 2.633-.334 3.608-1.308.974-.974 1.246-2.241 1.308-3.608.058-1.266.069-1.646.069-4.85s-.012-3.584-.07-4.85c-.062-1.366-.334-2.633-1.308-3.608-.974-.974-2.241-1.246-3.608-1.308C15.647 2.175 15.267 2.163 12 2.163z" fill="#262626"/><circle cx="12" cy="12" r="3.5" fill="#262626"/><circle cx="18.406" cy="5.594" r="1.44" fill="#262626"/></svg> 