<svg role="img" viewBox="0 0 24 24" xmlns="http://www.w3.org/2000/svg"><title>TikTok</title><path d="M12.875 0h3.084c.09 1.272.51 2.49 1.23 3.53.705 1.02 1.72 1.8 2.87 2.13.8.24 1.64.32 2.47.34v3.06c-.82-.01-1.64-.09-2.44-.25v8.38c0 2.29-1.01 4.47-2.77 5.97-1.7 1.47-4.09 2.09-6.28 1.48-2.13-.56-3.98-2.23-4.7-4.31-.53-1.5-.52-3.15-.03-4.65.47-1.44 1.44-2.7 2.75-3.41 1.36-.74 3.09-.8 4.44-.13v3.19c-.41-.19-.87-.27-1.32-.22-1.13.13-2.01 1.23-1.81 2.35.16 1.09 1.37 1.85 2.41 1.54.7-.19 1.19-.86 1.19-1.58V0z" fill="#010101"/></svg> 